<?xml version="1.0" ?><svg height="277px" version="1.1" viewBox="0 0 214 277" width="214px" xmlns="http://www.w3.org/2000/svg" xmlns:xlink="http://www.w3.org/1999/xlink"><title/><desc/><defs/><g fill="none" fill-rule="evenodd" id="Page-1" stroke="none" stroke-width="1"><g fill-rule="nonzero" id="new-file" transform="translate(0.000000, 0.200000)"><path d="M160.344,20.922 L65.189,116.077 C64.433,116.833 63.892,117.776 63.624,118.811 L55.457,150.265 C54.923,152.324 55.518,154.511 57.022,156.016 C58.162,157.155 59.693,157.773 61.264,157.773 C61.767,157.773 62.273,157.71 62.772,157.581 L94.226,149.413 C95.261,149.144 96.205,148.603 96.96,147.848 L192.113,52.695 C192.115,52.693 192.117,52.692 192.118,52.691 C192.119,52.69 192.121,52.687 192.122,52.686 L211.278,33.53 C213.622,31.187 213.622,27.388 211.279,25.046 L187.994,1.758 C186.868,0.632 185.343,0 183.751,0 C182.16,0 180.634,0.632 179.509,1.758 L160.354,20.913 C160.352,20.915 160.35,20.916 160.349,20.917 C160.348,20.918 160.346,20.921 160.344,20.922 Z M89.631,138.208 L69.638,143.4 L74.829,123.407 L164.591,33.645 L179.392,48.447 L89.631,138.208 Z M183.751,14.485 L198.552,29.287 L187.877,39.962 L173.076,25.16 L183.751,14.485 Z" fill="#FB4A5E" id="Shape"/><path d="M207.037,65.022 C203.724,65.022 201.037,67.709 201.037,71.022 L201.037,263.835 L12.799,263.835 L12.799,34.417 L123.862,34.417 C127.175,34.417 129.862,31.73 129.862,28.417 C129.862,25.104 127.175,22.417 123.862,22.417 L6.799,22.417 C3.486,22.417 0.799,25.104 0.799,28.417 L0.799,269.836 C0.799,273.149 3.486,275.836 6.799,275.836 L207.037,275.836 C210.35,275.836 213.037,273.149 213.037,269.836 L213.037,71.022 C213.037,67.709 210.351,65.022 207.037,65.022 Z" fill="#000000" id="Shape"/></g></g></svg>