<svg id="Layer_1" enable-background="new 0 0 512 512" height="512" viewBox="0 0 512 512" width="512" xmlns="http://www.w3.org/2000/svg"><g><circle cx="441" cy="311" r="10"/><path d="m448.069 2.93c-1.859-1.861-4.439-2.93-7.069-2.93h-370c-2.63 0-5.21 1.069-7.07 2.93-1.86 1.86-2.93 4.44-2.93 7.07v492c0 2.63 1.07 5.21 2.93 7.069 1.86 1.861 4.44 2.931 7.07 2.931h370c2.63 0 5.21-1.07 7.069-2.931 1.861-1.859 2.931-4.439 2.931-7.069v-146c0-5.521-4.49-10-10-10s-9.99 4.479-10 9.979v.021 136h-350v-472h350v246c0 5.51 4.49 10 10 10s10-4.49 10-10v-256c0-2.641-1.07-5.21-2.931-7.07z"/><path d="m346 100c0-5.522-4.478-10-10-10h-57c-5.522 0-10 4.478-10 10s4.478 10 10 10h57c5.522 0 10-4.478 10-10z"/><path d="m244 100c0-5.522-4.477-10-10-10h-58c-5.523 0-10 4.478-10 10s4.477 10 10 10h58c5.523 0 10-4.478 10-10z"/><path d="m306 60c0-5.522-4.478-10-10-10h-80c-5.523 0-10 4.478-10 10s4.477 10 10 10h80c5.522 0 10-4.478 10-10z"/><path d="m171 145c-38.598 0-70 31.402-70 70s31.402 70 70 70 70-31.402 70-70-31.402-70-70-70zm-24.924 113.317c5.482-8.172 14.774-13.317 24.924-13.317s19.442 5.145 24.924 13.317c-7.343 4.242-15.851 6.683-24.924 6.683s-17.581-2.441-24.924-6.683zm14.924-43.317c0-5.514 4.486-10 10-10s10 4.486 10 10-4.486 10-10 10-10-4.486-10-10zm49.985 29.985c-4.085-5.429-9.225-9.946-15.062-13.306 3.204-4.773 5.077-10.511 5.077-16.679 0-16.542-13.458-30-30-30s-30 13.458-30 30c0 6.168 1.873 11.906 5.077 16.679-5.837 3.36-10.977 7.877-15.062 13.306-6.285-8.36-10.015-18.744-10.015-29.985 0-27.57 22.43-50 50-50s50 22.43 50 50c0 11.24-3.73 21.625-10.015 29.985z"/><path d="m401 225h-130c-5.522 0-10 4.478-10 10s4.478 10 10 10h130c5.522 0 10-4.478 10-10s-4.478-10-10-10z"/><path d="m401 185h-42c-5.522 0-10 4.478-10 10s4.478 10 10 10h42c5.522 0 10-4.478 10-10s-4.478-10-10-10z"/><path d="m271 185c-5.522 0-10 4.478-10 10s4.478 10 10 10h43c5.522 0 10-4.478 10-10s-4.478-10-10-10z"/><path d="m171 305c-38.598 0-70 31.402-70 70s31.402 70 70 70 70-31.402 70-70-31.402-70-70-70zm-24.924 113.317c5.482-8.171 14.774-13.317 24.924-13.317s19.442 5.146 24.924 13.317c-7.343 4.242-15.851 6.683-24.924 6.683s-17.581-2.441-24.924-6.683zm14.924-43.317c0-5.514 4.486-10 10-10s10 4.486 10 10-4.486 10-10 10-10-4.486-10-10zm49.985 29.985c-4.085-5.429-9.225-9.946-15.062-13.306 3.204-4.773 5.077-10.511 5.077-16.679 0-16.542-13.458-30-30-30s-30 13.458-30 30c0 6.168 1.873 11.906 5.077 16.679-5.837 3.36-10.977 7.877-15.062 13.306-6.285-8.36-10.015-18.744-10.015-29.985 0-27.57 22.43-50 50-50s50 22.43 50 50c0 11.241-3.73 21.625-10.015 29.985z"/><path d="m271 385c-5.522 0-10 4.478-10 10s4.478 10 10 10h14c5.522 0 10-4.478 10-10s-4.478-10-10-10z"/><path d="m401 385h-12c-5.522 0-10 4.478-10 10s4.478 10 10 10h12c5.522 0 10-4.478 10-10s-4.478-10-10-10z"/><path d="m330 385c-5.522 0-10 4.478-10 10s4.478 10 10 10h14c5.522 0 10-4.478 10-10s-4.478-10-10-10z"/><path d="m401 345h-130c-5.522 0-10 4.478-10 10s4.478 10 10 10h130c5.522 0 10-4.478 10-10s-4.478-10-10-10z"/></g></svg>